<?xml version="1.0" encoding="UTF-8"?>
<!DOCTYPE svg PUBLIC "-//W3C//DTD SVG 1.1//EN" "http://www.w3.org/Graphics/SVG/1.1/DTD/svg11.dtd">
<svg xmlns="http://www.w3.org/2000/svg" version="1.1" width="1024px" height="303px" style="shape-rendering:geometricPrecision; text-rendering:geometricPrecision; image-rendering:optimizeQuality; fill-rule:evenodd; clip-rule:evenodd" xmlns:xlink="http://www.w3.org/1999/xlink">
<g><path style="opacity:0.081" fill="#000001" d="M 262.5,46.5 C 277.768,43.3863 290.602,47.3863 301,58.5C 304.712,65.0187 307.879,71.6853 310.5,78.5C 316.472,74.3652 322.805,70.8652 329.5,68C 330.743,66.8455 331.743,65.5122 332.5,64C 340.747,60.723 348.747,57.0564 356.5,53C 359.7,52.8985 362.7,52.2319 365.5,51C 371.345,51.7861 377.345,52.4527 383.5,53C 387.188,56.2262 391.188,58.7262 395.5,60.5C 395.351,61.552 395.517,62.552 396,63.5C 400.909,68.092 405.243,73.092 409,78.5C 410.212,83.2544 412.212,87.5877 415,91.5C 416.477,96.6878 417.477,102.021 418,107.5C 421.333,112.167 424.667,116.833 428,121.5C 431.151,132.289 431.317,143.122 428.5,154C 429.604,160.372 431.271,166.538 433.5,172.5C 434.478,172.023 435.311,171.357 436,170.5C 438.443,151.332 440.443,131.999 442,112.5C 442.667,111.833 443.333,111.167 444,110.5C 443.509,102.756 446.175,96.4226 452,91.5C 452.333,90.1667 452.667,88.8333 453,87.5C 458.591,81.9064 464.758,77.0731 471.5,73C 475.442,72.0071 479.442,71.3404 483.5,71C 484.167,70.3333 484.833,69.6667 485.5,69C 496.02,68.8458 506.353,67.8458 516.5,66C 517.167,65.3333 517.833,64.6667 518.5,64C 529.967,61.9364 541.633,60.9364 553.5,61C 558.371,59.2589 562.704,56.5922 566.5,53C 570.71,51.3772 574.71,49.3772 578.5,47C 587.833,46.3333 597.167,46.3333 606.5,47C 607.167,47.6667 607.833,48.3333 608.5,49C 615.097,49.1629 620.43,51.6629 624.5,56.5C 625.991,57.2436 627.491,57.9103 629,58.5C 633.391,63.6204 637.057,69.2871 640,75.5C 640.307,79.0468 641.14,82.3801 642.5,85.5C 653.838,85.6665 665.172,85.4999 676.5,85C 680.234,82.2839 682.734,78.7839 684,74.5C 689.053,70.5698 693.553,66.0698 697.5,61C 706.84,56.3219 716.173,51.6552 725.5,47C 739.167,46.3333 752.833,46.3333 766.5,47C 771.369,49.0359 774.703,52.5359 776.5,57.5C 777.814,58.3128 778.981,59.3128 780,60.5C 779.965,65.3436 781.298,69.677 784,73.5C 784.333,78.1667 784.667,82.8333 785,87.5C 786.319,89.4875 788.152,90.6541 790.5,91C 793.871,93.8373 796.538,97.1706 798.5,101C 801.167,101.667 803.833,101.667 806.5,101C 813.068,96.7433 820.401,94.7433 828.5,95C 829.167,94.3333 829.833,93.6667 830.5,93C 838.167,92.6667 845.833,92.3333 853.5,92C 857.935,90.9059 861.935,88.9059 865.5,86C 877.132,84.2919 888.799,82.9586 900.5,82C 916.544,80.3499 932.211,81.6832 947.5,86C 950.123,88.302 953.123,89.9687 956.5,91C 958.501,93.8396 961.168,95.673 964.5,96.5C 969.28,100.441 973.113,105.108 976,110.5C 977.944,125.194 977.944,139.86 976,154.5C 970.833,162.333 964.333,168.833 956.5,174C 952.944,178.059 948.944,181.559 944.5,184.5C 943.211,201.983 935.877,216.483 922.5,228C 917.247,231.191 911.913,234.191 906.5,237C 899.541,238.607 892.541,239.94 885.5,241C 874.323,241.981 863.323,241.481 852.5,239.5C 846.817,240.558 841.15,241.725 835.5,243C 817.053,245.082 799.219,243.249 782,237.5C 776.318,238.963 770.818,240.796 765.5,243C 758.664,243.288 751.997,244.121 745.5,245.5C 738.826,244.55 732.159,243.55 725.5,242.5C 721.352,242.042 717.685,240.542 714.5,238C 707.684,236.753 701.351,237.753 695.5,241C 687.401,241.672 679.401,242.506 671.5,243.5C 667.833,243.333 664.167,243.167 660.5,243C 654.645,241.97 648.812,240.803 643,239.5C 638.369,241.019 633.536,241.852 628.5,242C 623.659,244.375 618.992,247.042 614.5,250C 598.962,254.361 582.962,255.694 566.5,254C 560.99,252.189 555.324,250.856 549.5,250C 548.833,249.333 548.167,248.667 547.5,248C 542.167,247.667 536.833,247.333 531.5,247C 524.314,246.162 517.647,243.829 511.5,240C 507.243,239.628 503.076,238.795 499,237.5C 497.272,237.454 495.772,237.954 494.5,239C 483.485,239.832 472.485,239.666 461.5,238.5C 459.5,237.833 457.5,237.167 455.5,236.5C 452.655,234.856 449.655,233.356 446.5,232C 443.157,228.247 439.99,224.414 437,220.5C 435.167,211.5 433.333,202.5 431.5,193.5C 430.32,197.508 428.486,201.175 426,204.5C 415.973,215.875 404.807,225.708 392.5,234C 386.5,236.333 380.5,238.667 374.5,241C 367.698,241.522 361.031,242.522 354.5,244C 349.364,246.118 345.03,249.451 341.5,254C 339.212,254.822 336.878,255.489 334.5,256C 319.28,256.884 304.113,256.384 289,254.5C 269.845,256.817 250.678,256.984 231.5,255C 228.639,254.46 225.972,253.46 223.5,252C 220.266,248.855 217.266,245.522 214.5,242C 201.599,243.245 188.599,243.578 175.5,243C 169.988,240.882 164.322,238.882 158.5,237C 156.654,235.001 154.321,234.168 151.5,234.5C 147.361,234.795 143.695,236.295 140.5,239C 129.924,243.053 118.924,244.387 107.5,243C 97.3291,238.162 89.8291,230.662 85,220.5C 83.5585,209.707 80.2252,199.707 75,190.5C 73.633,178.74 68.7997,168.74 60.5,160.5C 60.2947,156.625 58.2947,154.959 54.5,155.5C 52.3073,148.089 49.8073,140.756 47,133.5C 46.3333,119.167 46.3333,104.833 47,90.5C 50.9743,83.5092 56.141,77.3425 62.5,72C 67.4899,69.9168 72.1566,67.2501 76.5,64C 87.8352,61.7304 98.8352,58.7304 109.5,55C 110.167,54.3333 110.833,53.6667 111.5,53C 125.644,50.6271 139.977,49.9604 154.5,51C 160.009,52.1929 165.342,53.8596 170.5,56C 174.029,58.8433 178.029,60.8433 182.5,62C 189.823,68.4771 196.156,75.6438 201.5,83.5C 208.292,77.2088 214.959,70.7088 221.5,64C 229.085,60.7264 236.418,57.0598 243.5,53C 248.869,50.6601 254.536,49.3268 260.5,49C 261.381,48.2917 262.047,47.4584 262.5,46.5 Z"/></g>
<g><path style="opacity:1" fill="#385ea7" d="M 949.5,139.5 C 941.406,143.744 933.406,148.244 925.5,153C 921.291,154.189 917.624,153.356 914.5,150.5C 914.167,153 913.833,155.5 913.5,158C 913.525,160.929 914.191,163.429 915.5,165.5C 915.21,173.752 915.043,182.085 915,190.5C 913.723,192.747 912.223,194.747 910.5,196.5C 898.112,197.698 885.778,199.365 873.5,201.5C 869.861,200.381 866.861,198.214 864.5,195C 863.667,194.833 862.833,194.667 862,194.5C 845.995,202.317 829.162,204.817 811.5,202C 802.713,199.618 795.713,194.785 790.5,187.5C 774.219,203.653 755.219,207.987 733.5,200.5C 727.948,197.129 722.781,193.129 718,188.5C 715.501,183.867 713.001,179.2 710.5,174.5C 708.457,180.623 707.29,186.956 707,193.5C 705.25,195.734 703.75,198.068 702.5,200.5C 690.849,201.543 679.182,202.043 667.5,202C 664.226,199.554 661.892,196.388 660.5,192.5C 658.462,195.855 655.462,197.688 651.5,198C 640.536,199.579 629.536,200.746 618.5,201.5C 617.934,206.301 615.6,209.968 611.5,212.5C 599.848,213.469 588.181,213.635 576.5,213C 574.947,211.903 573.614,210.57 572.5,209C 570.866,208.506 569.199,208.34 567.5,208.5C 555.134,208.027 542.801,206.527 530.5,204C 526.09,197.594 524.09,190.427 524.5,182.5C 523.167,182.5 521.833,182.5 520.5,182.5C 520.94,189.237 517.94,193.737 511.5,196C 498.142,196.67 484.809,197.337 471.5,198C 468.937,195.938 466.937,193.438 465.5,190.5C 466.122,179.164 466.789,167.83 467.5,156.5C 469.266,145.572 470.266,134.572 470.5,123.5C 471.84,114.333 473.007,104.999 474,95.5C 474.564,93.1133 475.73,91.1133 477.5,89.5C 477.842,88.6618 478.508,88.3284 479.5,88.5C 492.819,87.5249 506.153,86.6915 519.5,86C 520.381,85.2917 521.047,84.4584 521.5,83.5C 521.953,82.5416 522.619,81.7083 523.5,81C 533.5,80.3333 543.5,80.3333 553.5,81C 554.044,81.7172 554.711,82.2172 555.5,82.5C 557.93,86.1071 559.597,90.1071 560.5,94.5C 561.679,101.714 563.345,108.881 565.5,116C 570.876,114.426 576.21,112.426 581.5,110C 571.072,104.722 566.405,96.2219 567.5,84.5C 569.173,78.1605 572.173,72.4939 576.5,67.5C 577.975,65.5905 579.975,64.4238 582.5,64C 596.161,61.9997 606.661,66.833 614,78.5C 614.667,84.1667 614.667,89.8333 614,95.5C 613.033,97.6297 611.866,99.6297 610.5,101.5C 610.752,103.073 611.418,104.406 612.5,105.5C 612.559,107.722 613.725,108.722 616,108.5C 619.35,108.054 622.517,107.388 625.5,106.5C 632.789,103.994 640.122,103.994 647.5,106.5C 647.735,107.097 648.235,107.43 649,107.5C 656.408,105.785 663.908,104.785 671.5,104.5C 674.521,105.005 677.521,105.672 680.5,106.5C 683.91,103.755 687.577,101.422 691.5,99.5C 696.833,99.5 702.167,99.5 707.5,99.5C 707.334,92.4921 707.5,85.4921 708,78.5C 709.649,77.1155 710.816,75.4488 711.5,73.5C 720.652,68.9314 729.985,64.4314 739.5,60C 745.89,58.0578 750.723,59.8912 754,65.5C 754.5,77.4954 754.667,89.4954 754.5,101.5C 758.846,101.334 763.179,101.501 767.5,102C 769.848,102.346 771.681,103.513 773,105.5C 774.122,116.085 774.955,126.752 775.5,137.5C 778.986,136.205 782.486,136.205 786,137.5C 799.227,120.97 816.394,111.97 837.5,110.5C 843.277,110.855 848.944,111.855 854.5,113.5C 857.994,110.176 861.661,107.009 865.5,104C 875.183,102.974 884.849,101.807 894.5,100.5C 897.32,100.578 899.987,101.245 902.5,102.5C 923.953,95.7331 940.786,101.733 953,120.5C 954.476,125.076 954.81,129.743 954,134.5C 953.004,136.66 951.504,138.327 949.5,139.5 Z"/></g>
<g><path style="opacity:1" fill="#395ea6" d="M 279.5,70.5 C 279.785,89.7181 281.118,108.718 283.5,127.5C 287.5,125.5 291.5,123.5 295.5,121.5C 301.516,121.593 307.516,121.926 313.5,122.5C 322.228,127.465 329.894,126.299 336.5,119C 334.714,118.215 333.214,117.049 332,115.5C 329.697,110.721 326.864,106.387 323.5,102.5C 322.74,97.1352 324.074,92.4685 327.5,88.5C 338.608,81.7742 349.941,75.2742 361.5,69C 366.898,67.7813 371.398,69.2813 375,73.5C 379.751,81.3374 384.751,89.004 390,96.5C 390.667,99.5 390.667,102.5 390,105.5C 388.023,108.312 385.856,110.978 383.5,113.5C 388.122,116.095 392.788,118.595 397.5,121C 402.777,124.054 404.944,128.554 404,134.5C 399.833,140.167 395.667,145.833 391.5,151.5C 395.812,156.98 400.312,162.313 405,167.5C 406.545,169.209 407.378,171.209 407.5,173.5C 405.865,180.776 402.198,186.776 396.5,191.5C 377.884,202.142 357.884,205.475 336.5,201.5C 336.774,206.263 336.441,210.93 335.5,215.5C 335.5,215.833 335.5,216.167 335.5,216.5C 332.067,220.478 327.734,221.978 322.5,221C 312.5,213.667 302.5,206.333 292.5,199C 291.552,198.517 290.552,198.351 289.5,198.5C 289.666,202.846 289.499,207.179 289,211.5C 287.269,213.617 285.102,215.117 282.5,216C 269.833,216.667 257.167,216.667 244.5,216C 242.171,213.174 240.504,210.008 239.5,206.5C 239.745,197.758 239.079,189.092 237.5,180.5C 233.015,184.485 228.682,188.651 224.5,193C 208.628,203.751 191.961,205.251 174.5,197.5C 164.335,188.509 158.335,177.176 156.5,163.5C 156.334,158.156 156.501,152.823 157,147.5C 159.507,141.874 161.674,136.208 163.5,130.5C 165.167,128.5 166.833,126.5 168.5,124.5C 173.63,119.697 179.297,115.697 185.5,112.5C 202.942,105.684 219.275,107.684 234.5,118.5C 235.466,116.604 235.799,114.604 235.5,112.5C 233.173,112.753 231.173,112.086 229.5,110.5C 227.044,108.206 225.71,105.373 225.5,102C 226.769,96.5809 227.603,91.0809 228,85.5C 228.904,82.7666 230.404,80.4333 232.5,78.5C 242.73,72.8883 253.397,68.055 264.5,64C 271.665,61.6727 276.665,63.8394 279.5,70.5 Z"/></g>
<g><path style="opacity:1" fill="#385ea6" d="M 167.5,122.5 C 160.236,130.937 152.736,139.27 145,147.5C 144.616,149.197 144.782,150.863 145.5,152.5C 146.589,157.631 147.922,162.631 149.5,167.5C 150.201,171.301 151.368,174.968 153,178.5C 153.667,181.167 153.667,183.833 153,186.5C 145.991,192.926 138.491,198.76 130.5,204C 128.527,204.495 126.527,204.662 124.5,204.5C 120.435,202.767 117.768,199.767 116.5,195.5C 115.968,190.905 114.635,186.571 112.5,182.5C 106.814,165.522 100.98,148.522 95,131.5C 91.9047,130.289 88.9047,128.956 86,127.5C 85,126.167 84,124.833 83,123.5C 82.6274,119.782 81.4608,116.449 79.5,113.5C 76.7111,106.436 74.3778,99.2698 72.5,92C 72.6667,90.5 72.8333,89 73,87.5C 74.3756,86.2949 75.5423,84.9616 76.5,83.5C 90.6596,77.7864 105.326,73.2864 120.5,70C 132.282,68.9377 143.949,69.6043 155.5,72C 179.052,84.0641 183.052,100.897 167.5,122.5 Z"/></g>
<g><path style="opacity:1" fill="#bc9807" d="M 741.5,72.5 C 743.481,85.4581 744.148,98.7914 743.5,112.5C 750.167,112.5 756.833,112.5 763.5,112.5C 763.5,120.167 763.5,127.833 763.5,135.5C 762.167,135.5 760.833,135.5 759.5,135.5C 759.5,128.5 759.5,121.5 759.5,114.5C 752.833,114.5 746.167,114.5 739.5,114.5C 739.833,101.15 739.499,87.8167 738.5,74.5C 735.766,76.3706 732.766,77.3706 729.5,77.5C 732.999,74.7539 736.999,73.0873 741.5,72.5 Z"/></g>
<g><path style="opacity:1" fill="#fbca04" d="M 759.5,135.5 C 753.974,135.179 748.64,135.512 743.5,136.5C 742.221,137.968 740.554,138.635 738.5,138.5C 738.168,148.522 738.501,158.522 739.5,168.5C 744.55,173.369 749.884,173.702 755.5,169.5C 755.5,169.167 755.5,168.833 755.5,168.5C 757.017,168.489 758.184,167.823 759,166.5C 759.96,164.02 760.793,161.52 761.5,159C 766.056,155.893 770.723,153.06 775.5,150.5C 776.496,150.414 777.329,150.748 778,151.5C 781.171,159.224 782.171,167.224 781,175.5C 778.985,178.531 777.819,181.864 777.5,185.5C 767.093,193.064 755.427,195.564 742.5,193C 733.846,189.84 727.179,184.34 722.5,176.5C 720.758,170.644 719.758,164.644 719.5,158.5C 719.5,151.167 719.5,143.833 719.5,136.5C 713.167,136.5 706.833,136.5 700.5,136.5C 700.354,132.613 699.687,128.946 698.5,125.5C 698.058,121.846 697.724,118.179 697.5,114.5C 704.325,112.953 711.325,111.619 718.5,110.5C 718.5,104.5 718.5,98.5 718.5,92.5C 718.244,88.7307 718.577,85.0641 719.5,81.5C 722.54,79.6541 725.873,78.3208 729.5,77.5C 732.766,77.3706 735.766,76.3706 738.5,74.5C 739.499,87.8167 739.833,101.15 739.5,114.5C 746.167,114.5 752.833,114.5 759.5,114.5C 759.5,121.5 759.5,128.5 759.5,135.5 Z"/></g>
<g><path style="opacity:1" fill="#b69415" d="M 273.5,134.5 C 272.931,138.329 273.598,141.663 275.5,144.5C 273.784,145.971 271.784,146.971 269.5,147.5C 269.017,124.405 267.35,101.405 264.5,78.5C 261.833,79.1667 259.167,79.8333 256.5,80.5C 257.429,79.6851 258.429,78.8518 259.5,78C 263.233,76.7868 266.9,75.6201 270.5,74.5C 271.406,94.5099 272.406,114.51 273.5,134.5 Z"/></g>
<g><path style="opacity:1" fill="#b09220" d="M 586.5,100.5 C 589.518,100.665 592.518,100.498 595.5,100C 602.09,93.3011 602.09,86.6344 595.5,80C 590.997,78.2203 586.33,77.387 581.5,77.5C 587.383,73.5259 593.383,73.6925 599.5,78C 604.218,81.3433 605.718,85.8433 604,91.5C 602.333,94.1667 600.667,96.8333 599,99.5C 594.879,101.664 590.712,101.997 586.5,100.5 Z"/></g>
<g><path style="opacity:1" fill="#f9c809" d="M 581.5,77.5 C 586.33,77.387 590.997,78.2203 595.5,80C 602.09,86.6344 602.09,93.3011 595.5,100C 592.518,100.498 589.518,100.665 586.5,100.5C 581.88,99.3078 579.047,96.3078 578,91.5C 577.447,86.3395 578.614,81.6729 581.5,77.5 Z"/></g>
<g><path style="opacity:1" fill="#fbc907" d="M 275.5,144.5 C 276.167,144.5 276.5,144.167 276.5,143.5C 278.05,142.559 279.716,141.893 281.5,141.5C 283.848,141.408 285.514,140.408 286.5,138.5C 288.849,136.659 291.515,135.326 294.5,134.5C 302.83,135.296 311.163,136.129 319.5,137C 320.252,137.671 320.586,138.504 320.5,139.5C 311.205,146.488 301.872,153.488 292.5,160.5C 289.497,160.988 288.331,162.655 289,165.5C 298.898,173.531 309.065,181.198 319.5,188.5C 320.663,194.137 320.83,199.804 320,205.5C 319.329,204.748 318.496,204.414 317.5,204.5C 304.473,195.988 291.807,186.988 279.5,177.5C 279.158,176.662 278.492,176.328 277.5,176.5C 276.732,177.263 276.232,178.263 276,179.5C 274.989,178.663 273.822,178.33 272.5,178.5C 272.966,187.494 273.3,196.494 273.5,205.5C 265.833,205.5 258.167,205.5 250.5,205.5C 250.818,200.968 250.485,196.634 249.5,192.5C 247.903,161.983 246.236,131.317 244.5,100.5C 241.5,101.167 238.5,101.833 235.5,102.5C 236.092,99.8728 236.425,97.2062 236.5,94.5C 237.924,92.4855 238.59,90.1522 238.5,87.5C 242.165,87.4982 245.165,86.1648 247.5,83.5C 250.491,83.8337 252.824,82.8337 254.5,80.5C 255.167,80.5 255.833,80.5 256.5,80.5C 259.167,79.8333 261.833,79.1667 264.5,78.5C 267.35,101.405 269.017,124.405 269.5,147.5C 271.784,146.971 273.784,145.971 275.5,144.5 Z"/></g>
<g><path style="opacity:1" fill="#8b8044" d="M 148.5,81.5 C 139.651,81.1736 130.984,81.507 122.5,82.5C 119.609,83.4025 116.609,83.7359 113.5,83.5C 116.023,82.6156 118.69,81.7823 121.5,81C 130.676,80.176 139.676,80.3427 148.5,81.5 Z"/></g>
<g><path style="opacity:1" fill="#b59414" d="M 122.5,82.5 C 130.984,81.507 139.651,81.1736 148.5,81.5C 167.125,87.4071 170.958,98.4071 160,114.5C 155.283,120.619 150.117,126.285 144.5,131.5C 149.756,123.73 155.256,116.064 161,108.5C 164.258,100.836 162.424,94.6689 155.5,90C 145.682,83.0279 134.682,80.5279 122.5,82.5 Z"/></g>
<g><path style="opacity:1" fill="#af901b" d="M 373.5,102.5 C 373.649,101.448 373.483,100.448 373,99.5C 369.606,95.1019 366.606,90.4352 364,85.5C 362.89,83.9632 361.39,83.2965 359.5,83.5C 361.439,80.7236 363.939,80.057 367,81.5C 371.167,87.8333 375.333,94.1667 379.5,100.5C 377.696,101.768 375.696,102.435 373.5,102.5 Z"/></g>
<g><path style="opacity:1" fill="#a59344" d="M 254.5,80.5 C 252.824,82.8337 250.491,83.8337 247.5,83.5C 249.509,81.9348 251.843,80.9348 254.5,80.5 Z"/></g>
<g><path style="opacity:0.993" fill="#0f3d76" d="M 711.5,73.5 C 710.816,75.4488 709.649,77.1155 708,78.5C 707.5,85.4921 707.334,92.4921 707.5,99.5C 702.167,99.5 696.833,99.5 691.5,99.5C 692.757,95.0111 694.591,90.6778 697,86.5C 701.426,81.5663 706.26,77.233 711.5,73.5 Z"/></g>
<g><path style="opacity:1" fill="#fac806" d="M 122.5,82.5 C 134.682,80.5279 145.682,83.0279 155.5,90C 162.424,94.6689 164.258,100.836 161,108.5C 155.256,116.064 149.756,123.73 144.5,131.5C 140.833,135.833 136.833,139.833 132.5,143.5C 130.182,143.818 128.848,145.152 128.5,147.5C 131.826,160.135 135.159,172.801 138.5,185.5C 135.151,189.172 131.151,191.839 126.5,193.5C 126.076,189.988 125.076,186.655 123.5,183.5C 123.065,180.843 122.065,178.509 120.5,176.5C 119.696,173.421 118.696,170.421 117.5,167.5C 116.458,163.303 115.125,159.303 113.5,155.5C 110.931,146.116 107.598,137.116 103.5,128.5C 103.139,124.085 101.806,120.085 99.5,116.5C 99.6309,115.624 99.2975,114.957 98.5,114.5C 97.0692,116.938 95.0692,118.604 92.5,119.5C 92.0652,116.843 91.0652,114.509 89.5,112.5C 89.5,112.167 89.5,111.833 89.5,111.5C 89.0652,108.843 88.0652,106.509 86.5,104.5C 86.5,104.167 86.5,103.833 86.5,103.5C 86.0652,100.843 85.0652,98.5093 83.5,96.5C 82.6993,94.9582 82.366,93.2915 82.5,91.5C 88.6594,90.7777 94.6594,89.4444 100.5,87.5C 105.165,86.9431 109.498,85.6098 113.5,83.5C 116.609,83.7359 119.609,83.4025 122.5,82.5 Z"/></g>
<g><path style="opacity:1" fill="#f6c70f" d="M 359.5,83.5 C 361.39,83.2965 362.89,83.9632 364,85.5C 366.606,90.4352 369.606,95.1019 373,99.5C 373.483,100.448 373.649,101.448 373.5,102.5C 371.958,103.301 370.292,103.634 368.5,103.5C 363.283,102.802 358.616,103.802 354.5,106.5C 353.833,106.5 353.167,106.5 352.5,106.5C 348.24,107.585 343.906,108.252 339.5,108.5C 337.678,105.528 335.844,102.528 334,99.5C 333.251,98.365 333.417,97.365 334.5,96.5C 342.73,91.8858 351.063,87.5525 359.5,83.5 Z"/></g>
<g><path style="opacity:1" fill="#103a73" d="M 576.5,67.5 C 572.173,72.4939 569.173,78.1605 567.5,84.5C 567.299,88.8571 565.466,92.5237 562,95.5C 561.617,94.944 561.117,94.6107 560.5,94.5C 559.597,90.1071 557.93,86.1071 555.5,82.5C 556.482,83.1408 557.482,83.8075 558.5,84.5C 563.91,78.0862 569.91,72.4195 576.5,67.5 Z"/></g>
<g><path style="opacity:1" fill="#b09a3b" d="M 247.5,83.5 C 245.165,86.1648 242.165,87.4982 238.5,87.5C 241.088,85.4082 244.088,84.0749 247.5,83.5 Z"/></g>
<g><path style="opacity:1" fill="#a59031" d="M 113.5,83.5 C 109.498,85.6098 105.165,86.9431 100.5,87.5C 104.502,85.3902 108.835,84.0569 113.5,83.5 Z"/></g>
<g><path style="opacity:0.553" fill="#213d6f" d="M 521.5,83.5 C 521.047,84.4584 520.381,85.2917 519.5,86C 506.153,86.6915 492.819,87.5249 479.5,88.5C 480.609,87.71 481.942,87.21 483.5,87C 495.154,86.1117 506.82,85.4451 518.5,85C 519.244,83.9614 520.244,83.4614 521.5,83.5 Z"/></g>
<g><path style="opacity:1" fill="#b3a141" d="M 719.5,81.5 C 718.577,85.0641 718.244,88.7307 718.5,92.5C 718.167,92.5 717.833,92.5 717.5,92.5C 716.92,88.351 717.586,84.6843 719.5,81.5 Z"/></g>
<g><path style="opacity:1" fill="#b59316" d="M 550.5,98.5 C 551.011,104.532 551.844,110.532 553,116.5C 553.374,118.491 554.207,120.158 555.5,121.5C 555.41,124.152 556.076,126.485 557.5,128.5C 558.722,135.497 560.056,142.497 561.5,149.5C 562.011,155.532 562.844,161.532 564,167.5C 564.725,170.79 565.892,173.79 567.5,176.5C 569.476,183.715 570.81,191.048 571.5,198.5C 564.279,198.65 557.279,197.983 550.5,196.5C 555.5,196.5 560.5,196.5 565.5,196.5C 565.55,191.448 565.05,186.448 564,181.5C 557.131,152.322 550.964,122.989 545.5,93.5C 539.833,93.5 534.167,93.5 528.5,93.5C 535.087,91.5388 542.087,90.8721 549.5,91.5C 549.993,93.8056 550.326,96.139 550.5,98.5 Z"/></g>
<g><path style="opacity:1" fill="#7f8470" d="M 238.5,87.5 C 238.59,90.1522 237.924,92.4855 236.5,94.5C 236.41,91.8478 237.076,89.5145 238.5,87.5 Z"/></g>
<g><path style="opacity:1" fill="#fcca05" d="M 528.5,93.5 C 534.167,93.5 539.833,93.5 545.5,93.5C 550.964,122.989 557.131,152.322 564,181.5C 565.05,186.448 565.55,191.448 565.5,196.5C 560.5,196.5 555.5,196.5 550.5,196.5C 545.597,196.061 540.763,195.394 536,194.5C 535.458,188.34 534.291,182.34 532.5,176.5C 532.657,170.618 531.657,164.951 529.5,159.5C 528.893,159.624 528.56,159.957 528.5,160.5C 528.068,161.71 527.401,162.71 526.5,163.5C 525.883,163.389 525.383,163.056 525,162.5C 523.933,164.692 522.433,166.358 520.5,167.5C 518.515,164.202 516.515,160.869 514.5,157.5C 514.5,157.167 514.5,156.833 514.5,156.5C 513.791,155.596 512.791,155.263 511.5,155.5C 509.198,160.104 507.698,165.77 507,172.5C 506.501,176.821 506.334,181.154 506.5,185.5C 501.065,186.123 495.732,186.79 490.5,187.5C 487.833,187.5 485.167,187.5 482.5,187.5C 480.5,187.5 478.5,187.5 476.5,187.5C 476.5,182.5 476.5,177.5 476.5,172.5C 478.437,148.46 480.771,124.46 483.5,100.5C 492.519,99.6975 501.519,99.6975 510.5,100.5C 512.833,103.833 515.167,107.167 517.5,110.5C 518.622,109.37 519.956,108.703 521.5,108.5C 524.107,103.62 526.44,98.6203 528.5,93.5 Z"/></g>
<g><path style="opacity:1" fill="#b29320" d="M 521.5,108.5 C 519.956,108.703 518.622,109.37 517.5,110.5C 515.167,107.167 512.833,103.833 510.5,100.5C 501.519,99.6975 492.519,99.6975 483.5,100.5C 483.5,99.5 483.5,98.5 483.5,97.5C 493.832,96.8822 504.165,96.7155 514.5,97C 517.059,100.719 519.392,104.552 521.5,108.5 Z"/></g>
<g><path style="opacity:1" fill="#6f7982" d="M 83.5,96.5 C 85.0652,98.5093 86.0652,100.843 86.5,103.5C 84.1663,101.824 83.1663,99.491 83.5,96.5 Z"/></g>
<g><path style="opacity:1" fill="#0d4e8d" d="M 567.5,84.5 C 566.405,96.2219 571.072,104.722 581.5,110C 576.21,112.426 570.876,114.426 565.5,116C 563.345,108.881 561.679,101.714 560.5,94.5C 561.117,94.6107 561.617,94.944 562,95.5C 565.466,92.5237 567.299,88.8571 567.5,84.5 Z"/></g>
<g><path style="opacity:0.996" fill="#0f4882" d="M 327.5,88.5 C 324.074,92.4685 322.74,97.1352 323.5,102.5C 324.218,104.137 324.384,105.803 324,107.5C 321,110.5 318,113.5 315,116.5C 314.79,117.803 314.957,119.136 315.5,120.5C 315.253,121.713 314.586,122.38 313.5,122.5C 307.516,121.926 301.516,121.593 295.5,121.5C 296.496,120.335 297.829,119.668 299.5,119.5C 304.133,120.448 308.799,121.114 313.5,121.5C 312.56,118.286 311.06,115.286 309,112.5C 308.416,109.743 308.75,107.077 310,104.5C 315.424,98.5694 321.258,93.2361 327.5,88.5 Z"/></g>
<g><path style="opacity:1" fill="#b8a44a" d="M 368.5,103.5 C 364.058,104.99 359.391,105.99 354.5,106.5C 358.616,103.802 363.283,102.802 368.5,103.5 Z"/></g>
<g><path style="opacity:0.512" fill="#1e3764" d="M 671.5,104.5 C 663.908,104.785 656.408,105.785 649,107.5C 648.235,107.43 647.735,107.097 647.5,106.5C 655.479,103.733 663.479,103.066 671.5,104.5 Z"/></g>
<g><path style="opacity:1" fill="#8f8e62" d="M 140.5,106.5 C 135.797,106.437 131.13,106.771 126.5,107.5C 129.017,106.027 131.85,105.36 135,105.5C 137.033,105.506 138.866,105.839 140.5,106.5 Z"/></g>
<g><path style="opacity:1" fill="#3f61a6" d="M 140.5,106.5 C 141.497,106.47 142.164,106.97 142.5,108C 138.399,114.6 133.733,120.767 128.5,126.5C 127.313,124.928 126.313,123.261 125.5,121.5C 125.59,118.848 124.924,116.515 123.5,114.5C 122.962,112.883 122.629,111.216 122.5,109.5C 123.605,108.4 124.938,107.733 126.5,107.5C 131.13,106.771 135.797,106.437 140.5,106.5 Z"/></g>
<g><path style="opacity:1" fill="#104c8a" d="M 232.5,78.5 C 230.404,80.4333 228.904,82.7666 228,85.5C 227.603,91.0809 226.769,96.5809 225.5,102C 225.71,105.373 227.044,108.206 229.5,110.5C 231.173,112.086 233.173,112.753 235.5,112.5C 235.799,114.604 235.466,116.604 234.5,118.5C 219.275,107.684 202.942,105.684 185.5,112.5C 188.865,110.538 192.532,109.038 196.5,108C 202.157,107.501 207.824,107.334 213.5,107.5C 213.58,102.684 214.414,98.0169 216,93.5C 221.091,87.9018 226.591,82.9018 232.5,78.5 Z"/></g>
<g><path style="opacity:1" fill="#707982" d="M 86.5,104.5 C 88.0652,106.509 89.0652,108.843 89.5,111.5C 87.1663,109.824 86.1663,107.491 86.5,104.5 Z"/></g>
<g><path style="opacity:0.659" fill="#182e52" d="M 612.5,105.5 C 613.531,106.355 614.697,107.022 616,107.5C 619.105,106.633 622.272,106.299 625.5,106.5C 622.517,107.388 619.35,108.054 616,108.5C 613.725,108.722 612.559,107.722 612.5,105.5 Z"/></g>
<g><path style="opacity:1" fill="#60718e" d="M 352.5,106.5 C 348.452,109.38 344.119,110.046 339.5,108.5C 343.906,108.252 348.24,107.585 352.5,106.5 Z"/></g>
<g><path style="opacity:1" fill="#64737d" d="M 717.5,92.5 C 717.833,92.5 718.167,92.5 718.5,92.5C 718.5,98.5 718.5,104.5 718.5,110.5C 712.31,110.823 706.31,110.49 700.5,109.5C 706.167,109.5 711.833,109.5 717.5,109.5C 717.5,103.833 717.5,98.1667 717.5,92.5 Z"/></g>
<g><path style="opacity:0.82" fill="#25457d" d="M 279.5,70.5 C 280.309,72.2922 280.809,74.2922 281,76.5C 282.166,93.4872 282.999,110.487 283.5,127.5C 281.118,108.718 279.785,89.7181 279.5,70.5 Z"/></g>
<g><path style="opacity:1" fill="#717562" d="M 912.5,111.5 C 916.981,110.352 921.648,110.185 926.5,111C 927.056,111.383 927.389,111.883 927.5,112.5C 922.562,111.608 917.562,111.274 912.5,111.5 Z"/></g>
<g><path style="opacity:1" fill="#b99508" d="M 122.5,109.5 C 122.629,111.216 122.962,112.883 123.5,114.5C 123.41,117.152 124.076,119.485 125.5,121.5C 125.517,123.565 125.85,125.565 126.5,127.5C 124.883,128.038 123.216,128.371 121.5,128.5C 121.147,123.363 120.147,118.363 118.5,113.5C 119.521,111.812 120.855,110.479 122.5,109.5 Z"/></g>
<g><path style="opacity:1" fill="#bc980b" d="M 700.5,109.5 C 706.31,110.49 712.31,110.823 718.5,110.5C 711.325,111.619 704.325,112.953 697.5,114.5C 696.549,113.081 696.216,111.415 696.5,109.5C 697.833,109.5 699.167,109.5 700.5,109.5 Z"/></g>
<g><path style="opacity:1" fill="#b79512" d="M 912.5,111.5 C 917.562,111.274 922.562,111.608 927.5,112.5C 932.662,114.493 937.162,117.493 941,121.5C 943.076,124.217 943.743,127.217 943,130.5C 942.184,131.823 941.017,132.489 939.5,132.5C 939.221,129.882 938.554,127.382 937.5,125C 932.344,120.586 926.677,116.919 920.5,114C 913.717,113.201 907.05,113.701 900.5,115.5C 904.215,113.595 908.215,112.262 912.5,111.5 Z"/></g>
<g><path style="opacity:1" fill="#0a5798" d="M 323.5,102.5 C 326.864,106.387 329.697,110.721 332,115.5C 333.214,117.049 334.714,118.215 336.5,119C 329.894,126.299 322.228,127.465 313.5,122.5C 314.586,122.38 315.253,121.713 315.5,120.5C 314.957,119.136 314.79,117.803 315,116.5C 318,113.5 321,110.5 324,107.5C 324.384,105.803 324.218,104.137 323.5,102.5 Z"/></g>
<g><path style="opacity:1" fill="#837f4e" d="M 741.5,72.5 C 742.209,71.596 743.209,71.2627 744.5,71.5C 744.5,84.8333 744.5,98.1667 744.5,111.5C 751.167,111.5 757.833,111.5 764.5,111.5C 764.5,119.833 764.5,128.167 764.5,136.5C 757.5,136.5 750.5,136.5 743.5,136.5C 748.64,135.512 753.974,135.179 759.5,135.5C 760.833,135.5 762.167,135.5 763.5,135.5C 763.5,127.833 763.5,120.167 763.5,112.5C 756.833,112.5 750.167,112.5 743.5,112.5C 744.148,98.7914 743.481,85.4581 741.5,72.5 Z"/></g>
<g><path style="opacity:1" fill="#af9121" d="M 900.5,115.5 C 897.324,117.956 894.324,117.79 891.5,115C 884.831,114.712 878.164,114.878 871.5,115.5C 873.833,114.833 876.167,114.167 878.5,113.5C 883.272,112.746 888.106,112.079 893,111.5C 895.656,112.684 898.156,114.017 900.5,115.5 Z"/></g>
<g><path style="opacity:0.999" fill="#095290" d="M 76.5,83.5 C 75.5423,84.9616 74.3756,86.2949 73,87.5C 72.8333,89 72.6667,90.5 72.5,92C 74.3778,99.2698 76.7111,106.436 79.5,113.5C 79.6602,115.199 79.4935,116.866 79,118.5C 78.6667,118.167 78.3333,117.833 78,117.5C 74.3862,120.439 71.5528,123.939 69.5,128C 69.6667,128.833 69.8333,129.667 70,130.5C 73.3333,127.167 76.6667,123.833 80,120.5C 81.3654,121.593 81.6987,122.926 81,124.5C 77.6507,127.682 74.484,131.015 71.5,134.5C 73.0523,139.73 76.3856,142.73 81.5,143.5C 79.4727,143.662 77.4727,143.495 75.5,143C 74,141.5 72.5,140 71,138.5C 67.5887,128.602 63.5887,118.935 59,109.5C 58.1628,105.705 58.4961,102.039 60,98.5C 65.0914,92.9018 70.5914,87.9018 76.5,83.5 Z"/></g>
<g><path style="opacity:1" fill="#b19117" d="M 607.5,187.5 C 607.5,192.167 607.5,196.833 607.5,201.5C 606.5,201.5 605.5,201.5 604.5,201.5C 603.83,172.431 602.164,143.431 599.5,114.5C 598.893,114.624 598.56,114.957 598.5,115.5C 595.817,117.336 592.817,118.336 589.5,118.5C 593.774,114.958 598.774,112.958 604.5,112.5C 605.685,137.492 606.685,162.492 607.5,187.5 Z"/></g>
<g><path style="opacity:1" fill="#94833a" d="M 550.5,98.5 C 552.924,105.877 554.59,113.544 555.5,121.5C 554.207,120.158 553.374,118.491 553,116.5C 551.844,110.532 551.011,104.532 550.5,98.5 Z"/></g>
<g><path style="opacity:1" fill="#74775f" d="M 671.5,115.5 C 665.044,115.232 658.711,115.899 652.5,117.5C 658.609,114.492 664.942,113.826 671.5,115.5 Z"/></g>
<g><path style="opacity:1" fill="#fbc906" d="M 939.5,132.5 C 934.233,136.144 928.899,139.811 923.5,143.5C 921.006,140.174 918.006,137.34 914.5,135C 911.522,134.167 909.189,135 907.5,137.5C 905.097,137.393 903.264,138.393 902,140.5C 900.587,144.739 899.587,149.072 899,153.5C 898.445,164.844 898.612,176.177 899.5,187.5C 891.082,189.468 882.416,190.468 873.5,190.5C 873.774,185.737 873.441,181.07 872.5,176.5C 871.653,162.184 871.32,147.851 871.5,133.5C 871.5,127.5 871.5,121.5 871.5,115.5C 878.164,114.878 884.831,114.712 891.5,115C 894.324,117.79 897.324,117.956 900.5,115.5C 907.05,113.701 913.717,113.201 920.5,114C 926.677,116.919 932.344,120.586 937.5,125C 938.554,127.382 939.221,129.882 939.5,132.5 Z"/></g>
<g><path style="opacity:1" fill="#70797f" d="M 89.5,112.5 C 91.0652,114.509 92.0652,116.843 92.5,119.5C 90.1663,117.824 89.1663,115.491 89.5,112.5 Z"/></g>
<g><path style="opacity:1" fill="#fbc906" d="M 598.5,115.5 C 599.944,144.037 601.61,172.704 603.5,201.5C 603.5,201.833 603.5,202.167 603.5,202.5C 595.836,202.889 588.17,203.222 580.5,203.5C 580.389,181.829 580.055,160.162 579.5,138.5C 577.265,138.205 575.265,138.539 573.5,139.5C 572.5,139.5 571.5,139.5 570.5,139.5C 570.531,134.375 571.364,129.375 573,124.5C 578.48,122.262 583.98,120.262 589.5,118.5C 592.817,118.336 595.817,117.336 598.5,115.5 Z"/></g>
<g><path style="opacity:1" fill="#b39212" d="M 671.5,115.5 C 691.909,125.301 701.243,141.634 699.5,164.5C 699.546,173.233 698.879,181.9 697.5,190.5C 696.167,190.5 694.833,190.5 693.5,190.5C 693.5,190.167 693.5,189.833 693.5,189.5C 696.537,178.613 697.204,167.446 695.5,156C 695.096,151.416 693.763,147.25 691.5,143.5C 691.453,140.072 690.287,137.072 688,134.5C 683.468,129.633 678.634,125.133 673.5,121C 665.093,117.018 656.426,116.518 647.5,119.5C 648.635,117.787 650.302,117.12 652.5,117.5C 658.711,115.899 665.044,115.232 671.5,115.5 Z"/></g>
<g><path style="opacity:1" fill="#817b4e" d="M 123.5,114.5 C 124.924,116.515 125.59,118.848 125.5,121.5C 124.076,119.485 123.41,117.152 123.5,114.5 Z"/></g>
<g><path style="opacity:1" fill="#938434" d="M 211.5,119.5 C 206.13,119.392 200.797,119.725 195.5,120.5C 198.356,118.994 201.523,118.328 205,118.5C 207.361,118.504 209.527,118.837 211.5,119.5 Z"/></g>
<g><path style="opacity:1" fill="#fdca03" d="M 691.5,143.5 C 694.694,158.667 695.36,174 693.5,189.5C 693.5,189.833 693.5,190.167 693.5,190.5C 689.265,191.436 684.931,191.769 680.5,191.5C 677.5,191.5 674.5,191.5 671.5,191.5C 671.825,183.648 671.492,175.982 670.5,168.5C 670.167,165.167 669.833,161.833 669.5,158.5C 669.277,154.838 668.277,151.505 666.5,148.5C 666.073,144.144 664.406,140.311 661.5,137C 658.706,136.028 656.706,136.861 655.5,139.5C 653.61,139.297 652.11,139.963 651,141.5C 648.785,144.596 647.119,147.929 646,151.5C 645.5,163.495 645.333,175.495 645.5,187.5C 643.62,187.229 642.287,187.896 641.5,189.5C 637.802,189.552 634.135,189.886 630.5,190.5C 627.5,190.5 624.5,190.5 621.5,190.5C 621.737,189.209 621.404,188.209 620.5,187.5C 620.556,182.269 619.889,177.269 618.5,172.5C 618.5,158.167 618.5,143.833 618.5,129.5C 618.5,126.5 618.5,123.5 618.5,120.5C 623.174,120.333 627.841,119.999 632.5,119.5C 635.749,119.346 638.749,120.012 641.5,121.5C 643.422,121.199 645.088,120.533 646.5,119.5C 646.833,119.5 647.167,119.5 647.5,119.5C 656.426,116.518 665.093,117.018 673.5,121C 678.634,125.133 683.468,129.633 688,134.5C 690.287,137.072 691.453,140.072 691.5,143.5 Z"/></g>
<g><path style="opacity:1" fill="#6e7983" d="M 99.5,116.5 C 101.806,120.085 103.139,124.085 103.5,128.5C 101.589,124.767 100.256,120.767 99.5,116.5 Z"/></g>
<g><path style="opacity:1" fill="#095493" d="M 477.5,89.5 C 475.73,91.1133 474.564,93.1133 474,95.5C 473.007,104.999 471.84,114.333 470.5,123.5C 470.649,122.448 470.483,121.448 470,120.5C 467,123.5 464,126.5 461,129.5C 457.523,140.959 456.69,152.625 458.5,164.5C 461.52,161.811 464.52,159.144 467.5,156.5C 466.789,167.83 466.122,179.164 465.5,190.5C 464.691,188.708 464.191,186.708 464,184.5C 460.63,187.535 457.63,190.868 455,194.5C 455.001,178.491 455.501,162.491 456.5,146.5C 457.725,132.794 459.225,119.127 461,105.5C 465.728,99.2703 471.228,93.937 477.5,89.5 Z"/></g>
<g><path style="opacity:1" fill="#b99a2b" d="M 646.5,119.5 C 645.088,120.533 643.422,121.199 641.5,121.5C 638.749,120.012 635.749,119.346 632.5,119.5C 627.841,119.999 623.174,120.333 618.5,120.5C 618.5,123.5 618.5,126.5 618.5,129.5C 617.517,125.702 617.183,121.702 617.5,117.5C 624.355,117.122 631.189,116.456 638,115.5C 639.5,115.667 641,115.833 642.5,116C 643.532,117.627 644.866,118.793 646.5,119.5 Z"/></g>
<g><path style="opacity:1" fill="#fac909" d="M 222.5,181.5 C 217.69,185.411 212.357,188.577 206.5,191C 186.016,196.426 173.016,188.926 167.5,168.5C 166.68,162.203 166.347,155.869 166.5,149.5C 169.812,137.515 177.145,128.848 188.5,123.5C 220.505,117.344 234.672,130.344 231,162.5C 230.178,164.788 229.511,167.122 229,169.5C 226.128,173.183 223.962,177.183 222.5,181.5 Z"/></g>
<g><path style="opacity:1" fill="#ba9713" d="M 211.5,119.5 C 223.75,120.694 231.917,127.028 236,138.5C 239.347,155.486 234.847,169.82 222.5,181.5C 223.962,177.183 226.128,173.183 229,169.5C 229.511,167.122 230.178,164.788 231,162.5C 234.672,130.344 220.505,117.344 188.5,123.5C 190.185,121.182 192.519,120.182 195.5,120.5C 200.797,119.725 206.13,119.392 211.5,119.5 Z"/></g>
<g><path style="opacity:1" fill="#af9018" d="M 388.5,136.5 C 388.822,134.278 388.155,132.444 386.5,131C 375.184,123.299 362.851,121.465 349.5,125.5C 351.026,123.87 353.026,123.037 355.5,123C 368.79,120.428 380.957,122.928 392,130.5C 392.387,133.304 391.221,135.304 388.5,136.5 Z"/></g>
<g><path style="opacity:1" fill="#b1921e" d="M 860.5,136.5 C 860.617,134.516 859.95,132.85 858.5,131.5C 846.914,125.194 834.58,123.194 821.5,125.5C 836.399,119.367 850.566,121.033 864,130.5C 864.387,133.304 863.221,135.304 860.5,136.5 Z"/></g>
<g><path style="opacity:1" fill="#827f56" d="M 125.5,121.5 C 126.313,123.261 127.313,124.928 128.5,126.5C 128.158,127.338 127.492,127.672 126.5,127.5C 125.85,125.565 125.517,123.565 125.5,121.5 Z"/></g>
<g><path style="opacity:1" fill="#908c58" d="M 878.5,113.5 C 876.167,114.167 873.833,114.833 871.5,115.5C 871.5,121.5 871.5,127.5 871.5,133.5C 871.167,133.5 870.833,133.5 870.5,133.5C 870.5,126.833 870.5,120.167 870.5,113.5C 873.167,113.5 875.833,113.5 878.5,113.5 Z"/></g>
<g><path style="opacity:1" fill="#fac807" d="M 388.5,136.5 C 386.284,137.203 384.451,138.536 383,140.5C 374.355,151.312 365.522,161.979 356.5,172.5C 360.353,173.972 363.686,173.305 366.5,170.5C 370.708,168.632 374.375,165.965 377.5,162.5C 378.552,162.351 379.552,162.517 380.5,163C 383.316,166.783 386.483,170.283 390,173.5C 390.497,176.146 390.664,178.813 390.5,181.5C 382.309,187.89 372.975,191.556 362.5,192.5C 354.381,192.886 346.381,192.219 338.5,190.5C 332.246,188.747 328.079,184.747 326,178.5C 321.784,164.619 323.118,151.286 330,138.5C 335.194,132.001 341.694,127.668 349.5,125.5C 362.851,121.465 375.184,123.299 386.5,131C 388.155,132.444 388.822,134.278 388.5,136.5 Z"/></g>
<g><path style="opacity:1" fill="#f9c80b" d="M 860.5,136.5 C 860.5,137.167 860.167,137.5 859.5,137.5C 857.284,138.203 855.451,139.536 854,141.5C 845.689,151.979 837.189,162.312 828.5,172.5C 831.876,173.711 835.209,173.544 838.5,172C 839.056,171.617 839.389,171.117 839.5,170.5C 843.097,168.244 846.431,165.577 849.5,162.5C 850.922,162.709 852.255,163.209 853.5,164C 856.333,167.5 859.167,171 862,174.5C 862.497,176.81 862.663,179.143 862.5,181.5C 845.551,193.317 827.217,196.15 807.5,190C 798.927,183.517 794.927,174.85 795.5,164C 794.899,148.535 800.899,136.535 813.5,128C 815.909,126.293 818.575,125.46 821.5,125.5C 834.58,123.194 846.914,125.194 858.5,131.5C 859.95,132.85 860.617,134.516 860.5,136.5 Z"/></g>
<g><path style="opacity:1" fill="#67716e" d="M 555.5,121.5 C 556.924,123.515 557.59,125.848 557.5,128.5C 556.076,126.485 555.41,124.152 555.5,121.5 Z"/></g>
<g><path style="opacity:0.631" fill="#08243d" d="M 167.5,122.5 C 167.328,123.492 167.662,124.158 168.5,124.5C 166.833,126.5 165.167,128.5 163.5,130.5C 157.552,135.088 153.052,140.755 150,147.5C 148.264,149.063 146.764,150.73 145.5,152.5C 144.782,150.863 144.616,149.197 145,147.5C 152.736,139.27 160.236,130.937 167.5,122.5 Z"/></g>
<g><path style="opacity:1" fill="#3f61a5" d="M 219.5,138.5 C 220.461,140.265 220.795,142.265 220.5,144.5C 219.45,149.872 216.783,154.205 212.5,157.5C 201.394,160.622 194.728,156.622 192.5,145.5C 192.55,142.459 193.55,139.792 195.5,137.5C 198.784,134.274 202.618,131.941 207,130.5C 207.833,130.667 208.667,130.833 209.5,131C 204.156,134.74 203.156,139.406 206.5,145C 212.132,145.517 216.465,143.351 219.5,138.5 Z"/></g>
<g><path style="opacity:1" fill="#747d7c" d="M 698.5,125.5 C 699.687,128.946 700.354,132.613 700.5,136.5C 698.783,133.155 698.116,129.489 698.5,125.5 Z"/></g>
<g><path style="opacity:1" fill="#b89716" d="M 320.5,139.5 C 320.586,138.504 320.252,137.671 319.5,137C 311.163,136.129 302.83,135.296 294.5,134.5C 296.166,132.172 298.499,131.172 301.5,131.5C 309.554,132.555 317.554,133.888 325.5,135.5C 324.389,137.552 322.723,138.886 320.5,139.5 Z"/></g>
<g><path style="opacity:0.996" fill="#0269ad" d="M 470.5,123.5 C 470.266,134.572 469.266,145.572 467.5,156.5C 464.52,159.144 461.52,161.811 458.5,164.5C 456.69,152.625 457.523,140.959 461,129.5C 464,126.5 467,123.5 470,120.5C 470.483,121.448 470.649,122.448 470.5,123.5 Z"/></g>
<g><path style="opacity:1" fill="#aa9d4c" d="M 700.5,136.5 C 706.833,136.5 713.167,136.5 719.5,136.5C 719.5,143.833 719.5,151.167 719.5,158.5C 719.167,158.5 718.833,158.5 718.5,158.5C 718.5,151.5 718.5,144.5 718.5,137.5C 712.31,137.823 706.31,137.49 700.5,136.5 Z"/></g>
<g><path style="opacity:1" fill="#0666aa" d="M 163.5,130.5 C 161.674,136.208 159.507,141.874 157,147.5C 156.501,152.823 156.334,158.156 156.5,163.5C 155.663,165.859 154.163,167.859 152,169.5C 151.292,168.619 150.458,167.953 149.5,167.5C 147.922,162.631 146.589,157.631 145.5,152.5C 146.764,150.73 148.264,149.063 150,147.5C 153.052,140.755 157.552,135.088 163.5,130.5 Z"/></g>
<g><path style="opacity:1" fill="#6e7c7e" d="M 220.5,144.5 C 220.795,142.265 220.461,140.265 219.5,138.5C 219.281,137.325 219.614,136.325 220.5,135.5C 221.803,138.645 221.803,141.645 220.5,144.5 Z"/></g>
<g><path style="opacity:1" fill="#b7981e" d="M 388.5,136.5 C 379.945,147.9 370.778,158.9 361,169.5C 360.568,170.6 361.068,171.267 362.5,171.5C 363.849,171.154 365.183,170.821 366.5,170.5C 363.686,173.305 360.353,173.972 356.5,172.5C 365.522,161.979 374.355,151.312 383,140.5C 384.451,138.536 386.284,137.203 388.5,136.5 Z"/></g>
<g><path style="opacity:1" fill="#b59314" d="M 743.5,136.5 C 742.456,145.139 742.289,153.806 743,162.5C 743.366,164.452 744.199,166.118 745.5,167.5C 748.248,170.583 751.582,171.25 755.5,169.5C 749.884,173.702 744.55,173.369 739.5,168.5C 738.501,158.522 738.168,148.522 738.5,138.5C 740.554,138.635 742.221,137.968 743.5,136.5 Z"/></g>
<g><path style="opacity:1" fill="#b39f42" d="M 286.5,138.5 C 285.514,140.408 283.848,141.408 281.5,141.5C 282.659,139.75 284.326,138.75 286.5,138.5 Z"/></g>
<g><path style="opacity:1" fill="#787959" d="M 273.5,134.5 C 273.89,137.797 274.89,140.797 276.5,143.5C 276.5,144.167 276.167,144.5 275.5,144.5C 273.598,141.663 272.931,138.329 273.5,134.5 Z"/></g>
<g><path style="opacity:1" fill="#4764a1" d="M 347.5,163.5 C 344.414,162.346 343.081,160.012 343.5,156.5C 343.735,152.554 344.735,148.887 346.5,145.5C 351.012,141.276 356.345,139.776 362.5,141C 363.022,141.561 363.355,142.228 363.5,143C 357.946,149.714 352.613,156.547 347.5,163.5 Z"/></g>
<g><path style="opacity:1" fill="#4463a2" d="M 821.5,160.5 C 820.33,162.279 818.664,163.279 816.5,163.5C 814.706,157.187 815.373,151.187 818.5,145.5C 823.495,140.501 829.162,139.501 835.5,142.5C 830.427,148.233 825.761,154.233 821.5,160.5 Z"/></g>
<g><path style="opacity:1" fill="#b79516" d="M 195.5,137.5 C 193.55,139.792 192.55,142.459 192.5,145.5C 194.728,156.622 201.394,160.622 212.5,157.5C 204.533,163.24 197.033,162.574 190,155.5C 185.412,147.508 187.246,141.508 195.5,137.5 Z"/></g>
<g><path style="opacity:0.992" fill="#0763a5" d="M 949.5,139.5 C 949.631,140.239 949.464,140.906 949,141.5C 938.767,150.915 927.6,158.915 915.5,165.5C 914.191,163.429 913.525,160.929 913.5,158C 913.833,155.5 914.167,153 914.5,150.5C 917.624,153.356 921.291,154.189 925.5,153C 933.406,148.244 941.406,143.744 949.5,139.5 Z"/></g>
<g><path style="opacity:1" fill="#b29116" d="M 132.5,143.5 C 133.905,147.385 134.905,151.385 135.5,155.5C 135.723,159.162 136.723,162.495 138.5,165.5C 140.237,170.942 141.904,176.442 143.5,182C 142.23,183.775 140.564,184.942 138.5,185.5C 135.159,172.801 131.826,160.135 128.5,147.5C 128.848,145.152 130.182,143.818 132.5,143.5 Z"/></g>
<g><path style="opacity:1" fill="#b9960b" d="M 907.5,137.5 C 906.559,139.05 905.893,140.716 905.5,142.5C 904.732,143.263 904.232,144.263 904,145.5C 903.5,159.496 903.333,173.496 903.5,187.5C 902.167,187.5 900.833,187.5 899.5,187.5C 898.612,176.177 898.445,164.844 899,153.5C 899.587,149.072 900.587,144.739 902,140.5C 903.264,138.393 905.097,137.393 907.5,137.5 Z"/></g>
<g><path style="opacity:1" fill="#5d728d" d="M 870.5,133.5 C 870.833,133.5 871.167,133.5 871.5,133.5C 871.32,147.851 871.653,162.184 872.5,176.5C 871.778,176.082 871.278,175.416 871,174.5C 870.5,160.837 870.333,147.171 870.5,133.5 Z"/></g>
<g><path style="opacity:0.998" fill="#0564a7" d="M 79.5,113.5 C 81.4608,116.449 82.6274,119.782 83,123.5C 84,124.833 85,126.167 86,127.5C 88.9047,128.956 91.9047,130.289 95,131.5C 100.98,148.522 106.814,165.522 112.5,182.5C 111.542,182.047 110.708,181.381 110,180.5C 109.624,177.99 108.79,175.657 107.5,173.5C 104.182,176.317 101.015,179.317 98,182.5C 95.0328,179.535 92.8661,176.201 91.5,172.5C 90.6515,170.112 89.6515,167.779 88.5,165.5C 87.9906,160.297 86.3239,155.63 83.5,151.5C 83.0372,148.779 82.3705,146.112 81.5,143.5C 76.3856,142.73 73.0523,139.73 71.5,134.5C 74.484,131.015 77.6507,127.682 81,124.5C 81.6987,122.926 81.3654,121.593 80,120.5C 76.6667,123.833 73.3333,127.167 70,130.5C 69.8333,129.667 69.6667,128.833 69.5,128C 71.5528,123.939 74.3862,120.439 78,117.5C 78.3333,117.833 78.6667,118.167 79,118.5C 79.4935,116.866 79.6602,115.199 79.5,113.5 Z"/></g>
<g><path style="opacity:1" fill="#be9909" d="M 655.5,139.5 C 652.291,144.331 650.624,149.664 650.5,155.5C 649.403,166.34 649.403,177.34 650.5,188.5C 647.482,188.704 644.482,189.037 641.5,189.5C 642.287,187.896 643.62,187.229 645.5,187.5C 645.333,175.495 645.5,163.495 646,151.5C 647.119,147.929 648.785,144.596 651,141.5C 652.11,139.963 653.61,139.297 655.5,139.5 Z"/></g>
<g><path style="opacity:1" fill="#b39216" d="M 777.5,185.5 C 777.819,181.864 778.985,178.531 781,175.5C 782.171,167.224 781.171,159.224 778,151.5C 777.329,150.748 776.496,150.414 775.5,150.5C 777.132,147.927 779.298,147.261 782,148.5C 786.979,160.056 786.646,171.389 781,182.5C 779.961,183.71 778.794,184.71 777.5,185.5 Z"/></g>
<g><path style="opacity:1" fill="#ba9815" d="M 818.5,145.5 C 815.373,151.187 814.706,157.187 816.5,163.5C 818.664,163.279 820.33,162.279 821.5,160.5C 821.057,164.143 819.224,165.477 816,164.5C 813.929,167.416 812.595,167.082 812,163.5C 811.333,159.5 811.333,155.5 812,151.5C 813.406,148.591 815.572,146.591 818.5,145.5 Z"/></g>
<g><path style="opacity:1" fill="#b99a1e" d="M 859.5,137.5 C 850.925,148.752 841.925,159.752 832.5,170.5C 834.811,171.575 837.144,171.575 839.5,170.5C 839.389,171.117 839.056,171.617 838.5,172C 835.209,173.544 831.876,173.711 828.5,172.5C 837.189,162.312 845.689,151.979 854,141.5C 855.451,139.536 857.284,138.203 859.5,137.5 Z"/></g>
<g><path style="opacity:0.443" fill="#003253" d="M 83.5,151.5 C 86.3239,155.63 87.9906,160.297 88.5,165.5C 86.4624,161.06 84.7958,156.393 83.5,151.5 Z"/></g>
<g><path style="opacity:1" fill="#788078" d="M 666.5,148.5 C 668.277,151.505 669.277,154.838 669.5,158.5C 667.723,155.495 666.723,152.162 666.5,148.5 Z"/></g>
<g><path style="opacity:1" fill="#677884" d="M 166.5,149.5 C 166.347,155.869 166.68,162.203 167.5,168.5C 166.778,168.082 166.278,167.416 166,166.5C 165.182,160.651 165.348,154.985 166.5,149.5 Z"/></g>
<g><path style="opacity:1" fill="#c19c0e" d="M 346.5,145.5 C 344.735,148.887 343.735,152.554 343.5,156.5C 343.081,160.012 344.414,162.346 347.5,163.5C 345.919,165.086 343.919,166.086 341.5,166.5C 339.063,160.915 338.896,155.249 341,149.5C 342.451,147.536 344.284,146.203 346.5,145.5 Z"/></g>
<g><path style="opacity:1" fill="#827c4d" d="M 135.5,155.5 C 137.277,158.505 138.277,161.838 138.5,165.5C 136.723,162.495 135.723,159.162 135.5,155.5 Z"/></g>
<g><path style="opacity:1" fill="#b1911c" d="M 390.5,181.5 C 390.664,178.813 390.497,176.146 390,173.5C 386.483,170.283 383.316,166.783 380.5,163C 379.552,162.517 378.552,162.351 377.5,162.5C 378.459,159.718 380.126,157.885 382.5,157C 387.12,162.408 391.62,167.908 396,173.5C 395.68,177.022 393.847,179.689 390.5,181.5 Z"/></g>
<g><path style="opacity:1" fill="#b39219" d="M 862.5,181.5 C 862.663,179.143 862.497,176.81 862,174.5C 859.167,171 856.333,167.5 853.5,164C 852.255,163.209 850.922,162.709 849.5,162.5C 850.148,159.677 851.814,158.177 854.5,158C 859,163.167 863.5,168.333 868,173.5C 867.448,176.906 865.615,179.572 862.5,181.5 Z"/></g>
<g><path style="opacity:1" fill="#646f74" d="M 905.5,142.5 C 904.898,157.648 904.231,172.648 903.5,187.5C 903.333,173.496 903.5,159.496 904,145.5C 904.232,144.263 904.732,143.263 905.5,142.5 Z"/></g>
<g><path style="opacity:1" fill="#ba960d" d="M 514.5,156.5 C 513.307,156.97 512.64,157.97 512.5,159.5C 510.921,168.095 510.254,176.762 510.5,185.5C 509.167,185.5 507.833,185.5 506.5,185.5C 506.334,181.154 506.501,176.821 507,172.5C 507.698,165.77 509.198,160.104 511.5,155.5C 512.791,155.263 513.791,155.596 514.5,156.5 Z"/></g>
<g><path style="opacity:1" fill="#63728c" d="M 113.5,155.5 C 115.125,159.303 116.458,163.303 117.5,167.5C 116.21,166.942 115.377,165.942 115,164.5C 114.304,161.522 113.804,158.522 113.5,155.5 Z"/></g>
<g><path style="opacity:1" fill="#b89512" d="M 292.5,160.5 C 292.511,162.017 293.177,163.184 294.5,164C 304.667,171.5 314.833,179 325,186.5C 325.499,190.486 325.666,194.486 325.5,198.5C 325.815,202.371 325.482,206.038 324.5,209.5C 321.6,208.557 319.267,206.89 317.5,204.5C 318.496,204.414 319.329,204.748 320,205.5C 320.83,199.804 320.663,194.137 319.5,188.5C 309.065,181.198 298.898,173.531 289,165.5C 288.331,162.655 289.497,160.988 292.5,160.5 Z"/></g>
<g><path style="opacity:1" fill="#707981" d="M 528.5,160.5 C 528.56,159.957 528.893,159.624 529.5,159.5C 531.657,164.951 532.657,170.618 532.5,176.5C 531.039,171.194 529.706,165.861 528.5,160.5 Z"/></g>
<g><path style="opacity:1" fill="#657588" d="M 718.5,158.5 C 718.833,158.5 719.167,158.5 719.5,158.5C 719.758,164.644 720.758,170.644 722.5,176.5C 721.034,175.653 720.2,174.32 720,172.5C 719.006,167.882 718.506,163.215 718.5,158.5 Z"/></g>
<g><path style="opacity:1" fill="#b5961a" d="M 526.5,163.5 C 525.443,165.941 524.11,168.275 522.5,170.5C 521.575,169.643 520.908,168.643 520.5,167.5C 522.433,166.358 523.933,164.692 525,162.5C 525.383,163.056 525.883,163.389 526.5,163.5 Z"/></g>
<g><path style="opacity:1" fill="#5c6b86" d="M 745.5,167.5 C 748.764,168.324 752.098,168.658 755.5,168.5C 755.5,168.833 755.5,169.167 755.5,169.5C 751.582,171.25 748.248,170.583 745.5,167.5 Z"/></g>
<g><path style="opacity:1" fill="#91813f" d="M 561.5,149.5 C 564.257,158.209 566.257,167.209 567.5,176.5C 565.892,173.79 564.725,170.79 564,167.5C 562.844,161.532 562.011,155.532 561.5,149.5 Z"/></g>
<g><path style="opacity:1" fill="#dfb201" d="M 598.5,115.5 C 598.56,114.957 598.893,114.624 599.5,114.5C 602.164,143.431 603.83,172.431 604.5,201.5C 604.167,201.5 603.833,201.5 603.5,201.5C 601.61,172.704 599.944,144.037 598.5,115.5 Z"/></g>
<g><path style="opacity:1" fill="#6d7883" d="M 573.5,139.5 C 575.265,138.539 577.265,138.205 579.5,138.5C 580.055,160.162 580.389,181.829 580.5,203.5C 579.675,199.353 579.175,195.019 579,190.5C 578.5,173.503 578.333,156.503 578.5,139.5C 576.833,139.5 575.167,139.5 573.5,139.5 Z"/></g>
<g><path style="opacity:1" fill="#8b803f" d="M 650.5,155.5 C 650.806,166.684 650.806,177.684 650.5,188.5C 649.403,177.34 649.403,166.34 650.5,155.5 Z"/></g>
<g><path style="opacity:1" fill="#6d7884" d="M 120.5,176.5 C 122.065,178.509 123.065,180.843 123.5,183.5C 121.166,181.824 120.166,179.491 120.5,176.5 Z"/></g>
<g><path style="opacity:1" fill="#737e79" d="M 670.5,168.5 C 671.492,175.982 671.825,183.648 671.5,191.5C 674.5,191.5 677.5,191.5 680.5,191.5C 677.375,192.479 674.042,192.813 670.5,192.5C 670.5,184.5 670.5,176.5 670.5,168.5 Z"/></g>
<g><path style="opacity:1" fill="#d2a801" d="M 691.5,143.5 C 693.763,147.25 695.096,151.416 695.5,156C 697.204,167.446 696.537,178.613 693.5,189.5C 695.36,174 694.694,158.667 691.5,143.5 Z"/></g>
<g><path style="opacity:1" fill="#b49311" d="M 277.5,176.5 C 278.492,176.328 279.158,176.662 279.5,177.5C 278.512,182.64 278.179,187.974 278.5,193.5C 278.5,197.833 278.5,202.167 278.5,206.5C 277.167,206.5 275.833,206.5 274.5,206.5C 274.334,197.827 274.5,189.16 275,180.5C 275.414,180.957 275.914,181.291 276.5,181.5C 277.452,179.955 277.785,178.288 277.5,176.5 Z"/></g>
<g><path style="opacity:1" fill="#a49952" d="M 476.5,172.5 C 476.5,177.5 476.5,182.5 476.5,187.5C 478.5,187.5 480.5,187.5 482.5,187.5C 480.393,188.468 478.059,188.802 475.5,188.5C 475.179,182.974 475.512,177.64 476.5,172.5 Z"/></g>
<g><path style="opacity:1" fill="#0c4a88" d="M 91.5,172.5 C 92.8661,176.201 95.0328,179.535 98,182.5C 101.015,179.317 104.182,176.317 107.5,173.5C 108.79,175.657 109.624,177.99 110,180.5C 110.708,181.381 111.542,182.047 112.5,182.5C 114.635,186.571 115.968,190.905 116.5,195.5C 114.806,194.314 113.139,194.481 111.5,196C 109.333,198.167 107.167,200.333 105,202.5C 101.142,197.868 98.3085,192.868 96.5,187.5C 94.5993,182.671 92.9326,177.671 91.5,172.5 Z"/></g>
<g><path style="opacity:1" fill="#65727e" d="M 514.5,156.5 C 514.5,156.833 514.5,157.167 514.5,157.5C 512.054,166.876 511.054,176.543 511.5,186.5C 504.535,187.341 497.535,187.674 490.5,187.5C 495.732,186.79 501.065,186.123 506.5,185.5C 507.833,185.5 509.167,185.5 510.5,185.5C 510.254,176.762 510.921,168.095 512.5,159.5C 512.64,157.97 513.307,156.97 514.5,156.5 Z"/></g>
<g><path style="opacity:1" fill="#82866f" d="M 618.5,172.5 C 619.889,177.269 620.556,182.269 620.5,187.5C 618.969,182.75 618.302,177.75 618.5,172.5 Z"/></g>
<g><path style="opacity:1" fill="#a99c4f" d="M 620.5,187.5 C 621.404,188.209 621.737,189.209 621.5,190.5C 624.5,190.5 627.5,190.5 630.5,190.5C 627.375,191.479 624.042,191.813 620.5,191.5C 620.5,190.167 620.5,188.833 620.5,187.5 Z"/></g>
<g><path style="opacity:1" fill="#0e4885" d="M 156.5,163.5 C 158.335,177.176 164.335,188.509 174.5,197.5C 173.448,197.351 172.448,197.517 171.5,198C 169.306,201.105 166.64,203.772 163.5,206C 160.78,206.045 158.114,205.545 155.5,204.5C 153.344,202.198 151.677,199.531 150.5,196.5C 149.672,195.585 148.672,194.919 147.5,194.5C 143.108,198.897 138.442,202.897 133.5,206.5C 130.273,206.324 127.273,205.657 124.5,204.5C 126.527,204.662 128.527,204.495 130.5,204C 138.491,198.76 145.991,192.926 153,186.5C 153.667,183.833 153.667,181.167 153,178.5C 151.368,174.968 150.201,171.301 149.5,167.5C 150.458,167.953 151.292,168.619 152,169.5C 154.163,167.859 155.663,165.859 156.5,163.5 Z"/></g>
<g><path style="opacity:1" fill="#98935c" d="M 338.5,190.5 C 346.381,192.219 354.381,192.886 362.5,192.5C 356.681,193.653 350.681,193.819 344.5,193C 342.277,192.434 340.277,191.6 338.5,190.5 Z"/></g>
<g><path style="opacity:0.999" fill="#0d4480" d="M 733.5,200.5 C 729.869,203.629 726.369,206.963 723,210.5C 718.66,208.376 714.16,206.376 709.5,204.5C 707.637,202.295 705.303,200.961 702.5,200.5C 703.75,198.068 705.25,195.734 707,193.5C 707.29,186.956 708.457,180.623 710.5,174.5C 713.001,179.2 715.501,183.867 718,188.5C 722.781,193.129 727.948,197.129 733.5,200.5 Z"/></g>
<g><path style="opacity:0.998" fill="#0e3f78" d="M 456.5,146.5 C 455.501,162.491 455.001,178.491 455,194.5C 457.63,190.868 460.63,187.535 464,184.5C 464.191,186.708 464.691,188.708 465.5,190.5C 466.937,193.438 468.937,195.938 471.5,198C 484.809,197.337 498.142,196.67 511.5,196C 517.94,193.737 520.94,189.237 520.5,182.5C 521.833,182.5 523.167,182.5 524.5,182.5C 524.09,190.427 526.09,197.594 530.5,204C 542.801,206.527 555.134,208.027 567.5,208.5C 562.489,208.334 557.489,208.501 552.5,209C 549.833,211.667 547.167,214.333 544.5,217C 535.478,217.07 526.478,216.57 517.5,215.5C 516.206,214.71 515.039,213.71 514,212.5C 513.488,208.427 512.655,204.427 511.5,200.5C 508.262,203.907 504.595,206.741 500.5,209C 486.508,210.2 472.508,210.867 458.5,211C 452.956,207.575 450.622,202.575 451.5,196C 452.95,179.328 454.617,162.828 456.5,146.5 Z"/></g>
<g><path style="opacity:1" fill="#0e3f7a" d="M 239.5,206.5 C 238.732,205.737 238.232,204.737 238,203.5C 235,206.5 232,209.5 229,212.5C 227.942,206.482 226.776,200.482 225.5,194.5C 224.893,194.624 224.56,194.957 224.5,195.5C 210.724,210.386 193.724,216.886 173.5,215C 166.351,213.266 160.351,209.766 155.5,204.5C 158.114,205.545 160.78,206.045 163.5,206C 166.64,203.772 169.306,201.105 171.5,198C 172.448,197.517 173.448,197.351 174.5,197.5C 191.961,205.251 208.628,203.751 224.5,193C 228.682,188.651 233.015,184.485 237.5,180.5C 239.079,189.092 239.745,197.758 239.5,206.5 Z"/></g>
<g><path style="opacity:1" fill="#8c813e" d="M 607.5,187.5 C 608.487,192.305 608.821,197.305 608.5,202.5C 606.833,202.5 605.167,202.5 603.5,202.5C 603.5,202.167 603.5,201.833 603.5,201.5C 603.833,201.5 604.167,201.5 604.5,201.5C 605.5,201.5 606.5,201.5 607.5,201.5C 607.5,196.833 607.5,192.167 607.5,187.5 Z"/></g>
<g><path style="opacity:0.999" fill="#0f3c75" d="M 702.5,200.5 C 698.15,206.686 692.483,211.186 685.5,214C 675.496,214.72 665.496,215.053 655.5,215C 652.328,212.994 649.662,210.494 647.5,207.5C 638.642,211.576 629.309,213.243 619.5,212.5C 616.833,212.5 614.167,212.5 611.5,212.5C 615.6,209.968 617.934,206.301 618.5,201.5C 629.536,200.746 640.536,199.579 651.5,198C 655.462,197.688 658.462,195.855 660.5,192.5C 661.892,196.388 664.226,199.554 667.5,202C 679.182,202.043 690.849,201.543 702.5,200.5 Z"/></g>
<g><path style="opacity:0.998" fill="#0f3c75" d="M 396.5,191.5 C 385.324,204.257 371.324,212.091 354.5,215C 348.175,215.5 341.842,215.666 335.5,215.5C 336.441,210.93 336.774,206.263 336.5,201.5C 357.884,205.475 377.884,202.142 396.5,191.5 Z"/></g>
<g><path style="opacity:0.997" fill="#0e3c75" d="M 910.5,196.5 C 906.292,201.875 901.292,206.375 895.5,210C 884.333,211.426 873.166,212.926 862,214.5C 859.679,214.091 857.513,213.257 855.5,212C 854.345,209.785 852.845,207.952 851,206.5C 834.939,215.086 817.772,217.92 799.5,215C 790.769,213.087 783.769,208.587 778.5,201.5C 758.673,219.679 737.006,222.179 713.5,209C 711.959,207.629 710.625,206.129 709.5,204.5C 714.16,206.376 718.66,208.376 723,210.5C 726.369,206.963 729.869,203.629 733.5,200.5C 755.219,207.987 774.219,203.653 790.5,187.5C 795.713,194.785 802.713,199.618 811.5,202C 829.162,204.817 845.995,202.317 862,194.5C 862.833,194.667 863.667,194.833 864.5,195C 866.861,198.214 869.861,200.381 873.5,201.5C 885.778,199.365 898.112,197.698 910.5,196.5 Z"/></g>
<g><path style="opacity:0.996" fill="#0e3a71" d="M 96.5,187.5 C 98.3085,192.868 101.142,197.868 105,202.5C 107.167,200.333 109.333,198.167 111.5,196C 113.139,194.481 114.806,194.314 116.5,195.5C 117.768,199.767 120.435,202.767 124.5,204.5C 127.273,205.657 130.273,206.324 133.5,206.5C 129.017,210.137 124.35,213.637 119.5,217C 112.36,219.29 107.193,217.123 104,210.5C 101.394,202.849 98.8936,195.182 96.5,187.5 Z"/></g>
<g><path style="opacity:1" fill="#deb71d" d="M 277.5,176.5 C 277.785,178.288 277.452,179.955 276.5,181.5C 275.914,181.291 275.414,180.957 275,180.5C 274.5,189.16 274.334,197.827 274.5,206.5C 266.5,206.5 258.5,206.5 250.5,206.5C 249.514,202.03 249.181,197.363 249.5,192.5C 250.485,196.634 250.818,200.968 250.5,205.5C 258.167,205.5 265.833,205.5 273.5,205.5C 273.3,196.494 272.966,187.494 272.5,178.5C 273.822,178.33 274.989,178.663 276,179.5C 276.232,178.263 276.732,177.263 277.5,176.5 Z"/></g>
<g><path style="opacity:1" fill="#6d7466" d="M 325.5,198.5 C 326.809,202.351 326.809,206.351 325.5,210.5C 324.893,210.376 324.56,210.043 324.5,209.5C 325.482,206.038 325.815,202.371 325.5,198.5 Z"/></g>
<g><path style="opacity:1" fill="#7e8264" d="M 278.5,193.5 C 279.486,197.97 279.819,202.637 279.5,207.5C 269.652,207.827 259.986,207.494 250.5,206.5C 258.5,206.5 266.5,206.5 274.5,206.5C 275.833,206.5 277.167,206.5 278.5,206.5C 278.5,202.167 278.5,197.833 278.5,193.5 Z"/></g>
<g><path style="opacity:0.999" fill="#113269" d="M 567.5,208.5 C 569.199,208.34 570.866,208.506 572.5,209C 573.614,210.57 574.947,211.903 576.5,213C 588.181,213.635 599.848,213.469 611.5,212.5C 614.167,212.5 616.833,212.5 619.5,212.5C 617.031,213.317 614.365,213.817 611.5,214C 608.451,218.716 604.451,222.382 599.5,225C 587.504,225.867 575.504,226.2 563.5,226C 561.833,225 560.5,223.667 559.5,222C 546.182,220.49 532.849,219.157 519.5,218C 518.619,217.292 517.953,216.458 517.5,215.5C 526.478,216.57 535.478,217.07 544.5,217C 547.167,214.333 549.833,211.667 552.5,209C 557.489,208.501 562.489,208.334 567.5,208.5 Z"/></g>
<g><path style="opacity:0.997" fill="#123167" d="M 224.5,195.5 C 224.56,194.957 224.893,194.624 225.5,194.5C 226.776,200.482 227.942,206.482 229,212.5C 232,209.5 235,206.5 238,203.5C 238.232,204.737 238.732,205.737 239.5,206.5C 240.504,210.008 242.171,213.174 244.5,216C 257.167,216.667 269.833,216.667 282.5,216C 285.102,215.117 287.269,213.617 289,211.5C 289.499,207.179 289.666,202.846 289.5,198.5C 290.552,198.351 291.552,198.517 292.5,199C 302.5,206.333 312.5,213.667 322.5,221C 327.734,221.978 332.067,220.478 335.5,216.5C 330.779,221.724 325.779,226.891 320.5,232C 315.867,235.212 311.2,235.212 306.5,232C 299.936,226.469 293.102,221.302 286,216.5C 281.167,220.667 276.333,224.833 271.5,229C 258.5,229.667 245.5,229.667 232.5,229C 230.694,227.194 228.86,225.36 227,223.5C 226.981,213.937 226.148,204.604 224.5,195.5 Z"/></g>
</svg>
